<svg width="96" height="96" viewBox="0 0 96 96" fill="none" xmlns="http://www.w3.org/2000/svg">
<rect width="96" height="96" rx="16" fill="#0D1017"/>
<path d="M44.04 44.544V51.456H47.856V47.892H60.384V51.456H64.38V44.544H44.04ZM55.236 49.656V59.592C55.236 63.264 55.92 64.488 59.124 64.488C59.7 64.488 60.924 64.488 61.536 64.488C64.092 64.488 65.1 63.048 65.424 57.72C64.38 57.468 62.652 56.784 61.896 56.136C61.824 60.132 61.68 60.708 61.104 60.708C60.852 60.708 60.024 60.708 59.808 60.708C59.268 60.708 59.232 60.6 59.232 59.556V49.656H55.236ZM48.828 49.62C48.648 55.74 48.072 59.268 42.42 61.356C43.32 62.184 44.472 63.804 44.904 64.848C51.6 62.076 52.608 57.18 52.86 49.62H48.828ZM44.436 33.636V37.128H64.128V33.636H44.436ZM45.624 39.288V42.78H63.048V39.288H45.624ZM51.888 30.9V41.088H56.172V30.9H51.888ZM32.664 41.988V45.228H42.708V41.988H32.664ZM32.88 32.052V35.328H42.6V32.052H32.88ZM32.664 46.884V50.16H42.708V46.884H32.664ZM31.044 36.912V40.332H43.788V36.912H31.044ZM34.644 51.888V55.272H39.252V59.376H34.644V62.76H42.78V51.888H34.644ZM32.556 51.888V64.272H36.084V51.888H32.556Z" fill="#8C7EDC"/>
</svg>
